<svg width="100" height="74" viewBox="0 0 100 74" fill="none" xmlns="http://www.w3.org/2000/svg">
<path d="M59.5149 0.956323C55.3899 -0.212427 50.9899 -0.0748762 46.8649 1.09387C61.7149 5.56262 69.4836 24.8813 64.0524 44.5438C60.0649 58.9813 49.9586 69.7063 39.0273 72.8688C39.1648 72.9375 39.3023 72.9376 39.4398 73.0063C54.6336 77.2001 71.5461 64.4813 77.0461 44.5438C82.5461 24.6751 74.7086 5.15007 59.5149 0.956323Z" fill="#FF6163"/>
<path d="M31.7406 28.6624L50.8531 28.9374L55.2531 50.3186H32.3594C31.9469 50.3186 31.6031 49.9749 31.6031 49.6311L30.9844 29.4186C30.9844 29.0061 31.3281 28.6624 31.7406 28.6624Z" fill="#FFBD1F"/>
<path d="M59.0339 29.075L50.9215 28.9375C50.5778 28.9375 50.3027 29.2124 50.3027 29.5562V49.7C50.3027 50.0437 50.5778 50.3187 50.9215 50.3187H59.0339C59.3777 50.3187 59.6527 50.0437 59.6527 49.7V29.6937C59.584 29.35 59.3777 29.075 59.0339 29.075Z" fill="#F59800"/>
<path d="M40.541 43.1685C40.1285 43.1685 39.8535 42.8247 39.8535 42.481L39.9222 37.531C39.9222 37.1873 40.266 36.8435 40.6097 36.8435C41.0222 36.8435 41.2972 37.1873 41.2972 37.531L41.2285 42.481C41.2285 42.8247 40.9535 43.1685 40.541 43.1685Z" fill="#F59800"/>
<path d="M40.6094 38.2185C40.4719 38.2185 40.2656 38.1497 40.1281 38.0122L32.5656 30.9309C32.2906 30.6559 32.2906 30.2435 32.5656 29.9685C32.8406 29.6935 33.2531 29.6935 33.5281 29.9685L40.6094 36.6372L47.6219 30.3122C47.8969 30.0372 48.3094 30.1059 48.5844 30.3809C48.8594 30.6559 48.7907 31.0685 48.5157 31.3435L41.0906 38.1496C40.9531 38.1496 40.7469 38.2185 40.6094 38.2185Z" fill="#F59800"/>
<path d="M33.5278 49.3558C33.3215 49.3558 33.1153 49.2871 32.9778 49.1496C32.7028 48.8746 32.7715 48.4621 33.0465 48.1871L40.1277 41.9308C40.4027 41.7246 40.7465 41.7246 41.0215 41.9308L48.7903 48.1183C49.0653 48.3246 49.134 48.8058 48.9278 49.0808C48.7215 49.3558 48.2403 49.4246 47.9653 49.2184L40.609 43.3746L34.0091 49.2184C33.8716 49.3559 33.6653 49.3558 33.5278 49.3558Z" fill="#F59800"/>
<path d="M50.2344 42.9623C49.8219 42.9623 49.5469 42.6873 49.5469 42.2748V32.5811C49.5469 32.1686 49.8219 31.8936 50.2344 31.8936C50.6469 31.8936 50.9219 32.1686 50.9219 32.5811V42.2748C50.9219 42.6873 50.6469 42.9623 50.2344 42.9623Z" fill="white"/>
<path d="M33.3214 23.575H25.2089C24.7276 23.575 24.3839 23.0937 24.5901 22.6124C30.6401 8.99995 42.1901 0.131216 53.7401 0.199966L40.6089 0.0625C29.1277 0.13125 17.6464 8.99997 11.6652 22.5437C11.3902 23.2312 10.7026 23.6437 10.0151 23.6437H1.55886C0.802615 23.6437 0.390098 24.5374 0.940098 25.0874L12.0776 37.5312C12.8339 38.3563 14.0714 38.4938 14.9651 37.875L33.8026 25.1562C34.4901 24.675 34.1464 23.575 33.3214 23.575Z" fill="#FF9696"/>
<path d="M20.3961 43.9937H7.40234C8.02109 58.0874 15.2398 69.8437 26.6523 73.0062C28.5773 73.5562 30.5023 73.7624 32.4961 73.8312H45.2836C43.4273 73.8312 41.5024 73.5562 39.6461 73.0062C28.3024 69.8437 21.0149 58.0874 20.3961 43.9937Z" fill="#FF9696"/>
<path d="M82.477 69.2249L81.7895 73.2811C81.7208 73.5561 81.4458 73.8311 81.1708 73.8311H77.252C76.977 73.8311 76.7707 73.6249 76.8395 73.2811L77.527 69.2249C77.5957 68.9499 77.3895 68.6748 77.1145 68.6748H75.1895C74.9145 68.6748 74.7082 68.4686 74.777 68.1249L75.327 64.9623C75.3958 64.6873 75.6708 64.4124 75.9458 64.4124H77.8707C78.1457 64.4124 78.4208 64.2061 78.4895 63.8623L78.627 63.1061C78.6957 62.8311 78.4895 62.5561 78.2145 62.5561H76.2895C76.0145 62.5561 75.8082 62.3499 75.877 62.0061L76.4957 58.4311C76.5645 58.1561 76.8395 57.8811 77.1145 57.8811H79.0395C79.3145 57.8811 79.5895 57.6748 79.6582 57.3311L81.927 43.6498C81.9958 43.3748 82.2708 43.0999 82.5458 43.0999H90.2457C96.5707 43.0999 100.214 47.0873 99.252 52.7936C98.2895 58.4998 93.3395 62.4873 87.0145 62.4873H84.2645C83.9895 62.4873 83.7145 62.6936 83.6458 63.0374L83.5083 63.7936C83.4395 64.0686 83.6458 64.3436 83.9208 64.3436H91.0708C91.3458 64.3436 91.552 64.5498 91.4833 64.8936L90.9332 68.0561C90.8645 68.3311 90.5895 68.6061 90.3145 68.6061H83.1645C82.752 68.7436 82.477 68.9499 82.477 69.2249ZM87.3583 58.0873C91.002 58.0873 93.477 56.0936 93.9583 52.9999C94.4395 49.9061 92.652 47.9124 89.0083 47.9124H86.4645C86.1895 47.9124 85.9145 48.1186 85.8457 48.4623L84.3333 57.5374C84.2645 57.8124 84.4707 58.0873 84.7457 58.0873H87.3583Z" fill="#FF6163"/>
<path d="M77.8032 25.2937C76.497 25.2937 75.3282 24.3312 75.122 22.9562C75.122 22.8187 73.8845 15.7374 68.1095 9.27494C67.0783 8.17494 67.2157 6.38746 68.3157 5.42496C69.4157 4.46246 71.2033 4.53124 72.1658 5.63124C79.1783 13.4 80.4845 21.8562 80.5532 22.2C80.7595 23.7125 79.7282 25.0875 78.2157 25.2937C78.0782 25.2937 77.9407 25.2937 77.8032 25.2937Z" fill="#FF6163"/>
<path d="M68.1087 5.49365C67.1462 6.5249 67.0775 8.10617 68.04 9.20617C73.8837 15.6687 75.0525 22.8187 75.0525 22.8874C75.2587 24.2624 76.4275 25.225 77.7337 25.225C77.8712 25.225 78.0087 25.225 78.1462 25.225C78.215 25.225 78.2149 25.225 78.2149 25.225C77.0462 17.1125 73.4712 10.0312 68.1087 5.49365Z" fill="#FF2425"/>
</svg>
