<svg width="104" height="67" viewBox="0 0 104 67" fill="none" xmlns="http://www.w3.org/2000/svg">
<path d="M29.3034 25.0812H35.4221C35.8346 25.0812 36.2471 24.8749 36.5909 24.5999L39.6159 21.4374C40.0284 20.9561 40.7159 20.8187 41.3346 21.0249L45.3221 22.4686C45.9409 22.6749 46.6971 22.4687 47.1096 21.9187L51.8534 15.7312C52.7471 14.5624 54.0534 13.9436 55.4971 13.9436H56.8034C57.8346 13.9436 58.7971 14.2874 59.6221 14.9061L65.7409 19.6499C66.3596 20.1312 67.2534 20.0624 67.8721 19.5124L72.2034 15.0437C72.8909 14.3562 73.7159 13.8749 74.6096 13.6687L83.6159 11.8811C84.1659 11.7436 84.5784 11.3999 84.7846 10.9187L87.1221 5.48742C87.9471 3.56242 89.4596 2.04994 91.3846 1.29369L92.4159 0.881123C93.4471 0.468623 94.6159 1.29366 94.6159 2.46241V4.86866C94.6159 5.69366 94.9596 6.51869 95.5096 7.13744L100.047 11.8811C100.528 12.3624 100.803 13.0499 100.803 13.8062V15.4562C100.803 15.8687 100.735 16.2811 100.528 16.6936L98.4659 20.7499C98.1909 21.2999 98.2596 21.9874 98.5346 22.4686L103.21 29.6874C103.416 29.9624 103.485 30.3062 103.485 30.6499V36.4249C103.485 37.9374 101.766 38.6936 100.735 37.5936L96.4034 33.0562C95.5096 32.1624 95.0284 30.8562 95.0284 29.6187V22.6749C95.0284 21.1624 93.3096 20.4061 92.2784 21.5061L91.5909 22.2624C91.3846 22.4687 91.2471 22.6749 91.1784 22.9499L88.3596 31.8186C88.2221 32.2999 87.8784 32.6436 87.4659 32.8499L84.0971 34.2937C83.4784 34.5687 83.0659 35.1874 83.0659 35.8749V40.8937C83.0659 41.8562 83.8221 42.6124 84.7159 42.6124H88.6346C89.3909 42.6124 90.0784 43.1624 90.2159 43.9187L91.6596 50.6561C91.7284 50.8624 91.7284 51.0687 91.6596 51.2749L90.0096 63.0311C89.9409 63.3749 89.8034 63.6499 89.5971 63.9249L88.3596 65.4374C87.6034 66.3311 86.2284 66.1249 85.7471 65.0936L84.5784 62.8249C84.3721 62.4124 84.3034 61.8624 84.5096 61.3811L86.6409 55.7437C86.7096 55.5374 86.7784 55.3311 86.7784 55.1249V52.5812C86.7784 51.5499 85.6784 50.9999 84.8534 51.6187C84.6471 51.8249 84.3721 51.8937 84.0971 51.8937H80.5909C80.1784 51.8937 79.7659 51.6874 79.4221 51.4124L77.2221 49.0749C76.6034 48.3874 75.5721 48.3874 74.9534 49.0749L68.5596 55.7437C67.8721 56.4999 66.9096 56.9812 65.9471 57.1187L60.9284 57.8749C59.6221 58.0811 58.2471 57.6687 57.2159 56.7749L48.8284 49.4187C48.0034 48.7312 46.9721 48.3186 45.9409 48.3186H42.4346C41.4034 48.3186 40.6471 49.2811 40.8534 50.3124L40.9909 50.9312C41.1971 52.2374 39.9596 53.3374 38.7909 52.7874L35.5596 51.4124C35.2159 51.2749 34.9409 50.9999 34.8034 50.7249L33.7721 48.9374C33.4971 48.4561 32.9471 48.1124 32.3971 48.1124H29.3721C28.4784 48.1124 27.7221 48.8687 27.7221 49.8312V54.9187C27.7221 55.8812 26.9659 56.6374 26.0721 56.6374H23.3909C22.4971 56.6374 21.7409 57.3937 21.7409 58.3562V64.6812C21.7409 65.5749 20.6409 66.0561 20.0221 65.4374L9.91589 54.8499C9.15964 54.0936 8.60965 53.1311 8.33465 52.0999L7.02838 47.8374C6.75338 46.9437 7.23461 45.9812 8.12836 45.7062L15.0034 43.5061C15.8971 43.2311 16.3784 42.1999 16.0346 41.3062L13.6284 34.6374C13.0784 33.1249 12.8034 31.5437 12.8034 29.8937C12.8034 28.2437 13.4909 26.5937 14.7284 25.4937L18.5784 21.9874C18.9221 21.6437 19.1284 21.2312 19.1284 20.6812V15.1124C19.1284 14.4249 19.4721 13.8749 20.0909 13.5999L24.9721 11.2624C25.9346 10.7812 27.1034 10.9874 27.9284 11.7437L32.5346 16.0061C32.8096 16.2811 33.0159 16.6249 33.0846 17.0374L33.5659 20.6812C33.6346 21.4374 33.2909 22.1936 32.6034 22.4686L32.2596 22.6062C31.6409 22.8812 30.9534 22.7437 30.4721 22.2624L29.0971 20.8186C27.9971 19.5811 27.5159 20.6811 27.5846 21.5061L27.7221 23.7749C27.7221 24.3937 28.4096 25.0812 29.3034 25.0812Z" fill="#78D000"/>
<path d="M91.3842 41.9249L93.4467 51.3436C93.5842 51.9624 93.8592 52.5812 94.2717 53.0624L96.8155 55.95C97.1592 56.3624 97.8467 56.4312 98.2592 56.0187C98.603 55.7437 98.7405 55.2624 98.603 54.7811L96.678 49.3499C96.5405 48.9374 96.8842 48.4562 97.2967 48.5249C97.778 48.5937 98.053 48.0437 97.778 47.7L92.828 41.1687C92.6905 40.9625 92.4155 40.825 92.1405 40.825C91.6592 40.825 91.2467 41.3749 91.3842 41.9249Z" fill="#78D000"/>
<path d="M6.2034 45.1561L5.65341 43.4373C5.58466 43.1623 5.44715 42.9561 5.17215 42.8186L2.49093 40.7561C2.00968 40.4123 1.32217 40.7561 1.32217 41.3748V42.6124C1.32217 42.7499 1.32214 42.9561 1.25339 43.0936L0.772178 44.2624C0.428428 45.2249 1.18465 46.1874 2.0784 46.0499L2.62839 45.9811C2.90339 45.9124 3.24718 45.9811 3.52218 46.1873L4.20968 46.6686C4.75968 47.0811 5.51593 46.9436 5.92843 46.3936C6.27218 45.9811 6.3409 45.5686 6.2034 45.1561Z" fill="#78D000"/>
<path d="M9.22814 21.2312L6.61565 19.9249C5.65315 19.4436 4.82812 19.9936 4.82812 20.7499V24.4624C4.82812 25.3561 5.37812 26.1811 6.20312 26.4561C7.16562 26.7999 8.26563 26.3874 8.74688 25.4249C9.15938 24.6686 9.57188 23.6374 9.77813 22.3999C9.91563 21.9874 9.70939 21.4374 9.22814 21.2312Z" fill="#78D000"/>
<path d="M75.9847 0.125C72.5472 0.125 69.7285 2.94373 69.7285 6.38123C69.7285 12.225 74.266 20.6813 75.641 23.0875C75.7785 23.3625 76.191 23.3625 76.3973 23.0875C77.7723 20.75 82.3098 12.225 82.3098 6.38123C82.241 2.94373 79.4222 0.125 75.9847 0.125Z" fill="#FF6163"/>
<path d="M75.9848 9.20005C77.5415 9.20005 78.8035 7.93798 78.8035 6.38123C78.8035 4.82448 77.5415 3.5625 75.9848 3.5625C74.428 3.5625 73.166 4.82448 73.166 6.38123C73.166 7.93798 74.428 9.20005 75.9848 9.20005Z" fill="#AE1411"/>
<path d="M44.8402 9.75C41.4027 9.75 38.584 12.5687 38.584 16.0062C38.584 21.85 43.1215 30.3063 44.4965 32.7125C44.634 32.9875 45.0465 32.9875 45.2527 32.7125C46.6277 30.375 51.1652 21.85 51.1652 16.0062C51.0965 12.5687 48.3465 9.75 44.8402 9.75Z" fill="#FF6163"/>
<path d="M44.8402 18.8937C46.397 18.8937 47.659 17.6317 47.659 16.0749C47.659 14.5182 46.397 13.2561 44.8402 13.2561C43.2835 13.2561 42.0215 14.5182 42.0215 16.0749C42.0215 17.6317 43.2835 18.8937 44.8402 18.8937Z" fill="#AE1411"/>
<path d="M19.6097 4.7312C16.1722 4.7312 13.3535 7.54993 13.3535 10.9874C13.3535 16.8312 17.891 25.2874 19.266 27.6936C19.4035 27.9686 19.816 27.9686 20.0223 27.6936C21.3973 25.3561 25.9348 16.8312 25.9348 10.9874C25.866 7.54993 23.0472 4.7312 19.6097 4.7312Z" fill="#FF6163"/>
<path d="M19.6097 13.8748C21.1665 13.8748 22.4285 12.6128 22.4285 11.056C22.4285 9.49929 21.1665 8.2373 19.6097 8.2373C18.053 8.2373 16.791 9.49929 16.791 11.056C16.791 12.6128 18.053 13.8748 19.6097 13.8748Z" fill="#AE1411"/>
<path d="M16.1039 29.2751C12.6664 29.2751 9.84766 32.0939 9.84766 35.5314C9.84766 41.3751 14.3852 49.8314 15.7602 52.2377C15.8977 52.5127 16.3102 52.5127 16.5164 52.2377C17.8914 49.9002 22.4289 41.3751 22.4289 35.5314C22.3602 32.0939 19.6102 29.2751 16.1039 29.2751Z" fill="#FF6163"/>
<path d="M16.1039 38.3501C17.6607 38.3501 18.9227 37.0881 18.9227 35.5314C18.9227 33.9746 17.6607 32.7126 16.1039 32.7126C14.5472 32.7126 13.2852 33.9746 13.2852 35.5314C13.2852 37.0881 14.5472 38.3501 16.1039 38.3501Z" fill="#AE1411"/>
<path d="M55.9105 25.3562C52.473 25.3562 49.6543 28.1749 49.6543 31.6124C49.6543 37.4562 54.1918 45.9124 55.5668 48.3186C55.7043 48.5936 56.1168 48.5936 56.3231 48.3186C57.6981 45.9811 62.2355 37.4562 62.2355 31.6124C62.1668 28.1749 59.348 25.3562 55.9105 25.3562Z" fill="#FF6163"/>
<path d="M55.9105 34.4998C57.4673 34.4998 58.7293 33.2378 58.7293 31.681C58.7293 30.1243 57.4673 28.8623 55.9105 28.8623C54.3538 28.8623 53.0918 30.1243 53.0918 31.681C53.0918 33.2378 54.3538 34.4998 55.9105 34.4998Z" fill="#AE1411"/>
<path d="M60.859 61.1063C60.6527 61.1063 60.5152 61.1063 60.5152 61.1063C58.5902 61.0376 57.1465 59.3875 57.2152 57.5313C57.284 55.675 58.934 54.1626 60.7903 54.2313C60.9965 54.2313 65.8778 54.3688 68.3528 50.5188C69.384 48.9376 71.5152 48.4563 73.0965 49.4876C74.6777 50.5188 75.159 52.6501 74.1277 54.2313C70.0027 60.7626 62.5777 61.1063 60.859 61.1063Z" fill="#78D000"/>
<path d="M73.166 49.5564C71.5848 48.5251 69.4535 48.9376 68.4222 50.5876C65.9472 54.3689 60.9972 54.3001 60.8597 54.3001C59.2097 54.2314 57.766 55.3313 57.3535 56.9126C58.316 57.6001 59.4847 57.8751 60.7222 57.7376L65.741 56.9814C66.7723 56.8439 67.666 56.3626 68.3535 55.6064L73.716 50.0376C73.5098 49.8313 73.3723 49.6939 73.166 49.5564Z" fill="#37AA00"/>
</svg>
