<svg width="86" height="72" viewBox="0 0 86 72" fill="none" xmlns="http://www.w3.org/2000/svg">
<path d="M55.5797 0.599609L1.88598 2.31836C1.06098 2.31836 0.373497 3.07456 0.442247 3.89956L2.22973 56.0808C2.22973 56.9058 2.9172 57.5246 3.7422 57.5246H55.5797C56.4047 57.5246 57.0923 56.8371 57.0923 56.0121V2.11208C57.161 1.28708 56.4735 0.599609 55.5797 0.599609Z" fill="#FFBD1F"/>
<path d="M25.4679 1.56204L21.8241 15.5183C21.6866 16.1371 22.3054 16.6183 22.8554 16.2746L24.4366 15.3809C24.7804 15.1746 25.2616 15.3121 25.3991 15.7246L25.9491 17.0996C26.2241 17.7871 27.0491 18.0621 27.6679 17.5808L28.9741 16.6183C29.3179 16.3433 29.8679 16.4808 30.0054 16.8933L30.5553 18.2683C30.8303 18.9558 31.7241 19.1621 32.2741 18.6808L33.4429 17.7183C33.7866 17.4433 34.2679 17.5121 34.4741 17.9246L35.5054 19.5746C35.8491 20.1246 36.6053 19.9871 36.7428 19.3683L41.4866 0.943359L25.4679 1.56204Z" fill="white"/>
<path d="M37.2241 57.5932L32.4116 31.5371C32.2741 30.9183 31.5178 30.7808 31.1741 31.262L30.1428 32.7745C29.9366 33.1183 29.3866 33.1871 29.1116 32.9121L28.0116 31.8808C27.4616 31.3996 26.6366 31.537 26.2241 32.1557L25.4679 33.5996C25.2616 34.0121 24.7116 34.0808 24.3678 33.8058L23.2678 32.8432C22.7178 32.362 21.8241 32.4995 21.4804 33.187L20.7929 34.562C20.5866 34.9057 20.1741 35.0433 19.7616 34.837L18.1116 33.737C17.6303 33.3933 16.9428 33.8745 17.0803 34.4245L21.8241 57.5932H37.2241Z" fill="white"/>
<path d="M28.8359 30.7808C28.4234 30.7808 28.1484 30.5058 28.1484 30.0933V19.5059C28.1484 19.0934 28.4234 18.8184 28.8359 18.8184C29.2484 18.8184 29.5234 19.0934 29.5234 19.5059V30.0933C29.5234 30.5058 29.1797 30.7808 28.8359 30.7808Z" fill="#F59800"/>
<path d="M5.87305 25.2808C5.46055 25.2808 5.18555 25.0058 5.18555 24.5933V19.8496C5.18555 19.4371 5.46055 19.1621 5.87305 19.1621C6.28555 19.1621 6.56055 19.4371 6.56055 19.8496V24.5933C6.56055 24.937 6.28555 25.2808 5.87305 25.2808Z" fill="#D87600"/>
<path d="M12.5418 22.9434H5.87305C5.46055 22.9434 5.18555 22.6684 5.18555 22.2559C5.18555 21.8434 5.46055 21.5684 5.87305 21.5684H12.5418C12.9543 21.5684 13.2293 21.8434 13.2293 22.2559C13.2293 22.6684 12.9543 22.9434 12.5418 22.9434Z" fill="#D87600"/>
<path d="M11.9219 8.78068V16.8245C11.9219 17.3057 12.4719 17.5807 12.8157 17.3057C14.3282 16.1369 15.2219 14.5557 15.2219 12.8369C15.2219 11.1182 14.3282 9.53694 12.8157 8.36819C12.4032 8.02444 11.9219 8.29943 11.9219 8.78068Z" fill="#D87600"/>
<path d="M13.5735 13.5245H7.4547C6.7672 13.5245 6.14844 13.1808 5.80469 12.562C5.46094 11.9433 5.46094 11.2558 5.80469 10.6371C6.01094 10.2933 6.42345 10.1558 6.7672 10.362C7.11095 10.5683 7.24847 10.9808 7.04222 11.3246C6.90472 11.5996 6.97347 11.8058 7.04222 11.8745C7.11097 11.9433 7.24844 12.1495 7.52344 12.1495H13.6422C14.0547 12.1495 14.3297 12.4245 14.3297 12.837C14.3297 13.2495 13.9172 13.5245 13.5735 13.5245Z" fill="#D87600"/>
<path d="M46.3676 36.2807C46.3676 36.2807 40.7989 35.937 36.5364 38.2745C33.9239 39.7182 32.2051 40.6807 31.2426 41.2307C30.6926 41.5745 30.0738 41.7807 29.3863 41.9182L22.5801 43.1557C21.4113 43.3619 19.9676 44.6682 20.4488 46.4557C20.7238 47.4182 22.0301 48.3808 23.5426 48.7245C26.9113 49.4808 35.3676 48.7932 35.3676 48.7932L24.6426 57.5932H17.2864C16.1864 57.5932 15.3613 58.487 15.3613 59.5182C15.3613 61.6495 16.8051 63.5057 18.9364 63.987L22.7864 64.8808L23.8863 66.5995C25.0551 68.4558 27.3238 69.3495 29.4551 68.8682L30.9676 68.5245C30.9676 68.5245 32.0676 71.2745 34.3363 71.137C36.6051 70.9995 39.6988 69.2807 39.6988 69.2807C40.2488 70.6557 42.7238 71.8932 44.6488 70.4495C45.8863 69.5557 49.5988 66.8057 52.1426 64.9495C53.7926 63.7807 55.2364 62.2682 56.4739 60.6869L63.2801 51.4745L46.3676 36.2807Z" fill="#FFAD91"/>
<path d="M46.3679 36.2808H45.1992L59.4993 56.4933L63.2117 51.4746L46.3679 36.2808Z" fill="#EF6D4D"/>
<path d="M68.7807 3.48704L45.0619 34.0121C44.7182 34.4246 44.7869 35.0433 45.1994 35.3871L64.8619 53.1245C65.2744 53.537 65.9618 53.4683 66.3056 53.0558L84.6619 32.4308C84.6619 32.4308 87.6869 25.4183 80.0556 21.2246C72.2868 16.9621 70.2244 13.0433 70.0181 3.96826C70.0181 3.21201 69.1932 2.93704 68.7807 3.48704Z" fill="#B369FB"/>
<path d="M15.7734 61.3746L24.7109 57.5247H17.3547C16.2547 57.5247 15.4296 58.4184 15.4296 59.4497C15.3609 60.1372 15.4984 60.8246 15.7734 61.3746Z" fill="#EF6D4D"/>
<path d="M26.0856 66.1871C25.6043 66.1871 25.1231 66.1183 24.6418 66.0496L23.4044 65.7746C23.0606 65.7058 22.7856 65.2934 22.8544 64.9496C22.9231 64.6059 23.2668 64.3308 23.6793 64.3996L24.9169 64.6746C26.1544 64.9496 27.4606 64.7434 28.6294 64.1934C29.7294 63.6434 33.8544 61.2371 35.4356 60.2058C35.7794 59.9996 36.1918 60.0684 36.3981 60.4121C36.6043 60.7559 36.5356 61.1683 36.1919 61.3746C34.5419 62.4746 30.4169 64.8121 29.2481 65.4308C28.2856 65.9121 27.1856 66.1871 26.0856 66.1871Z" fill="#EF6D4D"/>
<path d="M31.5859 69.5559C31.1734 69.5559 30.8984 69.2809 30.8984 68.8684C30.8984 68.5246 31.1734 68.1809 31.5859 68.1809C31.6547 68.1809 34.886 68.0434 40.2485 62.6809C40.5235 62.4059 40.9359 62.4059 41.2109 62.6809C41.4859 62.9559 41.4859 63.3684 41.2109 63.6434C35.3672 69.4871 31.7234 69.5559 31.5859 69.5559Z" fill="#EF6D4D"/>
<path d="M40.3179 70.1746C40.0429 70.1746 39.7679 69.9684 39.6304 69.6934C39.5616 69.3496 39.7678 68.9371 40.1116 68.8683C40.1116 68.8683 40.8679 68.6621 42.0366 67.7683C43.0679 67.0121 44.0991 65.9808 45.1991 64.7433C45.4741 64.4683 45.8866 64.3996 46.1616 64.6746C46.4366 64.9496 46.5053 65.3621 46.2303 65.6371C45.1303 66.9434 43.9616 68.0433 42.8616 68.8683C41.4866 69.8996 40.5928 70.1746 40.5241 70.2433C40.4553 70.1058 40.3866 70.1746 40.3179 70.1746Z" fill="#EF6D4D"/>
<path d="M35.3676 49.412C35.1613 49.412 34.9551 49.3432 34.8176 49.137C34.5426 48.862 34.6114 48.3807 34.8864 48.1744L37.7051 45.8369C37.9801 45.5619 38.4614 45.6307 38.6676 45.9057C38.9426 46.1807 38.8739 46.6619 38.5989 46.8682L35.7802 49.2057C35.7114 49.3432 35.5738 49.412 35.3676 49.412Z" fill="#EF6D4D"/>
<path d="M12.4739 24.7995H14.7426C14.9488 24.7995 15.1551 24.5933 15.1551 24.387V20.1245C15.1551 19.9182 14.9488 19.712 14.7426 19.712L12.5426 19.6433C11.0301 19.5745 9.86133 20.7433 9.86133 22.2558C9.86133 23.6308 11.0301 24.7995 12.4739 24.7995Z" fill="#D87600"/>
<path d="M72.631 48.6558C72.0122 48.6558 71.3247 48.4495 70.7747 47.9683C69.6747 46.937 69.5372 45.2183 70.5685 44.1183L74.1435 40.062C75.1747 38.962 76.8934 38.8246 77.9934 39.8558C79.0934 40.8871 79.231 42.6058 78.1997 43.7058L74.6248 47.7621C74.1435 48.3808 73.3872 48.6558 72.631 48.6558Z" fill="#FF6163"/>
<path d="M77.9934 39.8558C76.8934 38.8246 75.106 38.962 74.1435 40.062L70.5685 44.1183C69.5372 45.2183 69.6747 47.0058 70.7747 47.9683L77.9934 39.8558Z" fill="#B32761"/>
</svg>
