<svg width="71" height="79" viewBox="0 0 71 79" fill="none" xmlns="http://www.w3.org/2000/svg">
<path d="M57.1863 37.475H47.9738V21.3188C47.9738 14.9938 42.8176 9.83751 36.4926 9.83751C30.1676 9.83751 25.0113 14.9938 25.0113 21.3188V37.4063H15.7988V21.3188C15.7988 9.90625 25.0801 0.625 36.4926 0.625C47.9051 0.625 57.1863 9.90625 57.1863 21.3188V37.475Z" fill="#4E397D"/>
<path d="M63.9926 78.725L8.78632 77.4187C5.55507 77.35 3.08008 74.6687 3.08008 71.5062L3.69884 36.0312C3.76759 32.8687 6.31135 30.325 9.54259 30.325H64.1988C67.4301 30.325 70.0426 32.9375 70.0426 36.1687V73.0187C69.9738 76.1812 67.2926 78.7937 63.9926 78.725Z" fill="#B369FB"/>
<path d="M50.6559 70.6125C53.4656 70.6125 55.7434 68.3347 55.7434 65.525C55.7434 62.7152 53.4656 60.4375 50.6559 60.4375C47.8461 60.4375 45.5684 62.7152 45.5684 65.525C45.5684 68.3347 47.8461 70.6125 50.6559 70.6125Z" fill="#FF6163"/>
<path d="M58.5621 70.6125C61.3719 70.6125 63.6496 68.3347 63.6496 65.525C63.6496 62.7152 61.3719 60.4375 58.5621 60.4375C55.7524 60.4375 53.4746 62.7152 53.4746 65.525C53.4746 68.3347 55.7524 70.6125 58.5621 70.6125Z" fill="#FFBD1F"/>
<path d="M20.4059 49.9875H13.2559C12.8434 49.9875 12.5684 49.7125 12.5684 49.3C12.5684 48.8875 12.8434 48.6125 13.2559 48.6125H20.4059C20.8184 48.6125 21.0934 48.8875 21.0934 49.3C21.0934 49.7125 20.7496 49.9875 20.4059 49.9875Z" fill="#4E397D"/>
<path d="M33.5367 49.9875H26.3867C25.9742 49.9875 25.6992 49.7125 25.6992 49.3C25.6992 48.8875 25.9742 48.6125 26.3867 48.6125H33.5367C33.9492 48.6125 34.2242 48.8875 34.2242 49.3C34.2242 49.7125 33.8804 49.9875 33.5367 49.9875Z" fill="#4E397D"/>
<path d="M46.5992 49.9875H39.4492C39.0367 49.9875 38.7617 49.7125 38.7617 49.3C38.7617 48.8875 39.0367 48.6125 39.4492 48.6125H46.5992C47.0117 48.6125 47.2867 48.8875 47.2867 49.3C47.2867 49.7125 47.0117 49.9875 46.5992 49.9875Z" fill="#4E397D"/>
<path d="M59.732 49.9875H52.582C52.1695 49.9875 51.8945 49.7125 51.8945 49.3C51.8945 48.8875 52.1695 48.6125 52.582 48.6125H59.732C60.1445 48.6125 60.4195 48.8875 60.4195 49.3C60.4195 49.7125 60.1445 49.9875 59.732 49.9875Z" fill="#4E397D"/>
<path d="M39.5184 62.3625L13.2559 62.0188C12.8434 62.0188 12.5684 61.675 12.5684 61.3313C12.5684 60.9188 12.9121 60.6438 13.2559 60.6438L39.4496 60.9875C39.8621 60.9875 40.1371 61.3313 40.1371 61.675C40.2059 62.0875 39.8621 62.3625 39.5184 62.3625Z" fill="#4E397D"/>
<path d="M34.6371 67.0376H13.2559C12.8434 67.0376 12.5684 66.7626 12.5684 66.3501C12.5684 65.9376 12.8434 65.6626 13.2559 65.6626H34.6371C35.0496 65.6626 35.3246 65.9376 35.3246 66.3501C35.3246 66.7626 34.9809 67.0376 34.6371 67.0376Z" fill="#4E397D"/>
<path d="M3.5625 53.9062C2.05 53.9062 0.8125 52.6687 0.8125 51.1562V40.8438C0.8125 39.3312 2.05 38.0938 3.5625 38.0938C5.075 38.0938 6.3125 39.3312 6.3125 40.8438V51.1562C6.3125 52.6687 5.075 53.9062 3.5625 53.9062Z" fill="#FF6163"/>
<path d="M3.6324 38.0938L3.35742 53.9062C3.42617 53.9062 3.42614 53.9062 3.49489 53.9062C5.00739 53.9062 6.24489 52.6687 6.24489 51.1562V40.8438C6.31364 39.4 5.1449 38.1625 3.6324 38.0938Z" fill="#B32761"/>
</svg>
